{
  "accessors": [
    {
      "bufferView": 2,
      "componentType": 5126,
      "count": 27960,
      "max": [
        7.339399814605713,
        7.700429916381836,
        26.474620819091797
      ],
      "min": [
        -7.339479923248291,
        -7.797689914703369,
        3.748889923095703
      ],
      "type": "VEC3"
    },
    {
      "bufferView": 2,
      "byteOffset": 335520,
      "componentType": 5126,
      "count": 27960,
      "max": [
        1.0,
        0.9999991059303284,
        1.0
      ],
      "min": [
        -1.0,
        -1.0,
        -1.0
      ],
      "type": "VEC3"
    },
    {
      "bufferView": 3,
      "componentType": 5126,
      "count": 27960,
      "max": [
        0.9999994039535522,
        0.9999802708625793,
        0.999987781047821,
        1.0
      ],
      "min": [
        -0.9999994039535522,
        -0.999839186668396,
        -0.9999895691871643,
        -1.0
      ],
      "type": "VEC4"
    },
    {
      "bufferView": 1,
      "componentType": 5126,
      "count": 27960,
      "max": [
        0.948170006275177,
        1.0
      ],
      "min": [
        0.0,
        0.0
      ],
      "type": "VEC2"
    },
    {
      "bufferView": 0,
      "componentType": 5125,
      "count": 156222,
      "type": "SCALAR"
    }
  ],
  "asset": {
    "extras": {
      "author": "Jedi2583 (https://sketchfab.com/Jedi2583)",
      "license": "CC-BY-4.0 (http://creativecommons.org/licenses/by/4.0/)",
      "source": "https://sketchfab.com/3d-models/bronze-figurine-of-cthulhu-fd33d0baaf6441daabf253f152afc56c",
      "title": "Bronze figurine of Cthulhu"
    },
    "generator": "Sketchfab-13.74.0",
    "version": "2.0"
  },
  "bufferViews": [
    {
      "buffer": 0,
      "byteLength": 624888,
      "name": "floatBufferViews",
      "target": 34963
    },
    {
      "buffer": 0,
      "byteLength": 223680,
      "byteOffset": 624888,
      "byteStride": 8,
      "name": "floatBufferViews",
      "target": 34962
    },
    {
      "buffer": 0,
      "byteLength": 671040,
      "byteOffset": 848568,
      "byteStride": 12,
      "name": "floatBufferViews",
      "target": 34962
    },
    {
      "buffer": 0,
      "byteLength": 447360,
      "byteOffset": 1519608,
      "byteStride": 16,
      "name": "floatBufferViews",
      "target": 34962
    }
  ],
  "buffers": [
    {
      "byteLength": 1966968,
      "uri": "scene.bin"
    }
  ],
  "images": [
    {
      "uri": "textures/MATERIAL_DEFAULTMATERIAL_baseColor.png"
    },
    {
      "uri": "textures/MATERIAL_DEFAULTMATERIAL_metallicRoughness.png"
    },
    {
      "uri": "textures/MATERIAL_DEFAULTMATERIAL_normal.png"
    }
  ],
  "materials": [
    {
      "doubleSided": true,
      "name": "MATERIAL_DEFAULTMATERIAL",
      "normalTexture": {
        "index": 2
      },
      "occlusionTexture": {
        "index": 1
      },
      "pbrMetallicRoughness": {
        "baseColorTexture": {
          "index": 0
        },
        "metallicRoughnessTexture": {
          "index": 1
        }
      }
    }
  ],
  "meshes": [
    {
      "name": "Object_0",
      "primitives": [
        {
          "attributes": {
            "NORMAL": 1,
            "POSITION": 0,
            "TANGENT": 2,
            "TEXCOORD_0": 3
          },
          "indices": 4,
          "material": 0,
          "mode": 4
        }
      ]
    }
  ],
  "nodes": [
    {
      "children": [
        1
      ],
      "matrix": [
        1.0,
        0.0,
        0.0,
        0.0,
        0.0,
        2.220446049250313e-16,
        -1.0,
        0.0,
        0.0,
        1.0,
        2.220446049250313e-16,
        0.0,
        0.0,
        0.0,
        0.0,
        1.0
      ],
      "name": "Sketchfab_model"
    },
    {
      "children": [
        2
      ],
      "name": "Cthulhu.obj.cleaner.materialmerger.gles"
    },
    {
      "mesh": 0,
      "name": "Object_2"
    }
  ],
  "samplers": [
    {
      "magFilter": 9729,
      "minFilter": 9987,
      "wrapS": 10497,
      "wrapT": 10497
    }
  ],
  "scene": 0,
  "scenes": [
    {
      "name": "Sketchfab_Scene",
      "nodes": [
        0
      ]
    }
  ],
  "textures": [
    {
      "sampler": 0,
      "source": 0
    },
    {
      "sampler": 0,
      "source": 1
    },
    {
      "sampler": 0,
      "source": 2
    }
  ]
}
