{
    "asset" : {
        "generator" : "Khronos glTF Blender I/O v3.4.50",
        "version" : "2.0"
    },
    "scene" : 0,
    "scenes" : [
        {
            "name" : "Scene",
            "nodes" : [
                2
            ]
        }
    ],
    "nodes" : [
        {
            "mesh" : 0,
            "name" : "statue",
            "scale" : [
                0.19999998807907104,
                0.19999998807907104,
                0.19999998807907104
            ]
        },
        {
            "children" : [
                0
            ],
            "name" : "Cthulhu.obj.cleaner.materialmerger.gles"
        },
        {
            "children" : [
                1
            ],
            "name" : "statue_whole",
            "rotation" : [
                -0.70710688829422,
                0,
                0,
                0.7071066498756409
            ]
        }
    ],
    "materials" : [
        {
            "doubleSided" : true,
            "name" : "MATERIAL_DEFAULTMATERIAL",
            "normalTexture" : {
                "index" : 0
            },
            "occlusionTexture" : {
                "index" : 1
            },
            "pbrMetallicRoughness" : {
                "baseColorTexture" : {
                    "index" : 2
                },
                "metallicRoughnessTexture" : {
                    "index" : 1
                }
            }
        }
    ],
    "meshes" : [
        {
            "name" : "statue_mesh",
            "primitives" : [
                {
                    "attributes" : {
                        "POSITION" : 0,
                        "TEXCOORD_0" : 1,
                        "NORMAL" : 2
                    },
                    "indices" : 3,
                    "material" : 0
                }
            ]
        }
    ],
    "textures" : [
        {
            "sampler" : 0,
            "source" : 0
        },
        {
            "sampler" : 0,
            "source" : 1
        },
        {
            "sampler" : 0,
            "source" : 2
        }
    ],
    "images" : [
        {
            "mimeType" : "image/png",
            "name" : "MATERIAL_DEFAULTMATERIAL_normal",
            "uri" : "textures/MATERIAL_DEFAULTMATERIAL_normal.png"
        },
        {
            "mimeType" : "image/png",
            "name" : "MATERIAL_DEFAULTMATERIAL_metallicRoughness",
            "uri" : "textures/MATERIAL_DEFAULTMATERIAL_metallicRoughness.png"
        },
        {
            "mimeType" : "image/png",
            "name" : "MATERIAL_DEFAULTMATERIAL_baseColor",
            "uri" : "textures/MATERIAL_DEFAULTMATERIAL_baseColor.png"
        }
    ],
    "accessors" : [
        {
            "bufferView" : 0,
            "componentType" : 5126,
            "count" : 3454,
            "max" : [
                7.332099437713623,
                7.735400676727295,
                22.484071731567383
            ],
            "min" : [
                -7.334542274475098,
                -7.768607139587402,
                -0.2226012945175171
            ],
            "type" : "VEC3"
        },
        {
            "bufferView" : 1,
            "componentType" : 5126,
            "count" : 3454,
            "type" : "VEC2"
        },
        {
            "bufferView" : 2,
            "componentType" : 5126,
            "count" : 3454,
            "type" : "VEC3"
        },
        {
            "bufferView" : 3,
            "componentType" : 5123,
            "count" : 15618,
            "type" : "SCALAR"
        }
    ],
    "bufferViews" : [
        {
            "buffer" : 0,
            "byteLength" : 41448,
            "byteOffset" : 0,
            "target" : 34962
        },
        {
            "buffer" : 0,
            "byteLength" : 27632,
            "byteOffset" : 41448,
            "target" : 34962
        },
        {
            "buffer" : 0,
            "byteLength" : 41448,
            "byteOffset" : 69080,
            "target" : 34962
        },
        {
            "buffer" : 0,
            "byteLength" : 31236,
            "byteOffset" : 110528,
            "target" : 34963
        }
    ],
    "samplers" : [
        {
            "magFilter" : 9729,
            "minFilter" : 9987
        }
    ],
    "buffers" : [
        {
            "byteLength" : 141764,
            "uri" : "statue_simpler.bin"
        }
    ]
}
